<?xml version="1.0" encoding="UTF-8" standalone="no"?>
<svg version="1.1" viewBox="0 0 311.25494 52.810898" xml:space="preserve" id="svg10" sodipodi:docname="logo&amp;splash.svg" inkscape:version="1.3.2 (091e20e, 2023-11-25, custom)" width="311.25494" height="52.810898" xmlns:inkscape="http://www.inkscape.org/namespaces/inkscape" xmlns:sodipodi="http://sodipodi.sourceforge.net/DTD/sodipodi-0.dtd" xmlns="http://www.w3.org/2000/svg" xmlns:svg="http://www.w3.org/2000/svg"><defs id="defs14" /><sodipodi:namedview id="namedview12" pagecolor="#9b9b9b" bordercolor="#666666" borderopacity="1.0" inkscape:showpageshadow="false" inkscape:pageopacity="0" inkscape:pagecheckerboard="true" inkscape:deskcolor="#979797" showgrid="false" inkscape:lockguides="false" inkscape:zoom="1.4142136" inkscape:cx="724.07735" inkscape:cy="194.10081" inkscape:window-width="1920" inkscape:window-height="1009" inkscape:window-x="1912" inkscape:window-y="-8" inkscape:window-maximized="1" inkscape:current-layer="layer2" showborder="true" borderlayer="true" shape-rendering="auto" showguides="true" /><g inkscape:groupmode="layer" id="layer2" inkscape:label="Layer" transform="translate(-102.26677,-165.86107)"><g id="g10" inkscape:export-filename="..\..\..\..\Users\bmms3\Desktop\brand.svg" inkscape:export-xdpi="64.67" inkscape:export-ydpi="64.67" transform="matrix(0.74177118,0,0,0.74177118,-26.71147,12.408446)"><path id="path1" style="fill:#df7a89;fill-opacity:1;stroke:none;stroke-width:4.77486;stroke-linecap:round;stroke-linejoin:round;stroke-miterlimit:6.9;stroke-dasharray:none;stroke-dashoffset:0.3;stroke-opacity:1" d="m 499.52957,226.38922 c -3.14103,-0.0647 -6.06301,2.43965 -6.47518,5.55294 -0.10789,1.22759 -0.10789,2.47537 0,3.70286 0.41004,3.11328 3.33415,5.62188 6.47518,5.55293 6.61976,0 13.23843,0 19.85819,0 -5.54613,-2.93837 -9.53311,-8.59716 -10.43302,-14.80916 -3.14207,-1.1e-4 -6.2831,0 -9.42517,4.3e-4 z" sodipodi:nodetypes="sscsscccccs" inkscape:export-filename="..\..\..\..\Users\bmms3\Desktop\logo_without.svg" inkscape:export-xdpi="4118.7085" inkscape:export-ydpi="4118.7085" /><rect style="fill:#df7a89;fill-opacity:1;stroke:none;stroke-width:8.2471;stroke-linecap:round;stroke-linejoin:round;stroke-miterlimit:6.9;stroke-dasharray:none;stroke-dashoffset:0.3;stroke-opacity:1" id="rect1" width="20.668606" height="14.792096" x="469.48529" y="226.3347" ry="7.3960481" /><path id="path2" style="fill:#84e1a6;fill-opacity:1;stroke:none;stroke-width:4.77486;stroke-linecap:round;stroke-linejoin:round;stroke-miterlimit:6.9;stroke-dasharray:none;stroke-dashoffset:0.3;stroke-opacity:1" d="m 507.9232,243.93595 c -2.9047,-0.0539 -5.66806,2.06427 -6.34675,4.89183 -0.30211,1.21033 -0.18344,2.46749 -0.19422,3.70275 0.10789,2.90201 2.37059,5.53168 5.22133,6.06007 0.78771,0.17372 1.59265,0.12409 2.39114,0.13164 0.874,-6.27383 5.37022,-12.04429 10.67575,-14.78683 -3.91464,0 -7.82933,0 -11.74398,2.2e-4 z" /><rect style="fill:#84e1a6;fill-opacity:1;stroke:none;stroke-width:10.0302;stroke-linecap:round;stroke-linejoin:round;stroke-miterlimit:6.9;stroke-dasharray:none;stroke-dashoffset:0.3;stroke-opacity:1" id="rect2" width="30.572254" height="14.792096" x="464.72113" y="243.93259" ry="7.3960481" /><circle style="fill:#fe9f66;fill-opacity:1;stroke:none;stroke-width:3.56072;stroke-linecap:round;stroke-linejoin:round;stroke-miterlimit:6.9;stroke-dasharray:none;stroke-dashoffset:0.3;stroke-opacity:1" id="circle2" cx="475.62064" cy="216.25615" r="7.3960509" /><path id="path3" style="fill:#fe9f66;fill-opacity:1;stroke:none;stroke-width:4.77486;stroke-linecap:round;stroke-linejoin:round;stroke-miterlimit:6.9;stroke-dasharray:none;stroke-dashoffset:0.3;stroke-opacity:1" d="m 494.95347,208.86493 c -3.07629,-0.0647 -5.96589,2.32701 -6.44929,5.36908 -0.16186,1.23115 -0.11869,2.48637 0,3.72314 0.33449,3.11954 3.19604,5.68307 6.32949,5.69224 4.64839,0.005 9.29682,8.7e-4 13.94521,0.002 -0.18345,-5.50708 2.58964,-11.19015 6.18385,-14.78662 -6.65322,0 -13.30644,0 -19.95966,0 z" /><path id="path4" style="fill:#cbc7fc;fill-opacity:1;stroke:none;stroke-width:4.77486;stroke-linecap:round;stroke-linejoin:round;stroke-miterlimit:6.9;stroke-dasharray:none;stroke-dashoffset:0.3;stroke-opacity:1" d="m 505.3422,261.48269 c -2.84751,-0.054 -5.56772,1.98172 -6.30469,4.73569 -0.35607,1.25532 -0.22659,2.57075 -0.23737,3.85888 0.10789,2.84493 2.28212,5.43565 5.06275,6.02576 1.31637,0.27299 2.66838,0.13056 4.00312,0.16617 2.28539,0 4.57182,0 6.85717,0 -4.01826,-3.77321 -6.00363,-9.51692 -6.10074,-14.78672 -1.092,0 -2.18501,1.1e-4 -3.27806,1.1e-4 z" /><circle style="fill:#cbc7fc;fill-opacity:1;stroke:none;stroke-width:3.56072;stroke-linecap:round;stroke-linejoin:round;stroke-miterlimit:6.9;stroke-dasharray:none;stroke-dashoffset:0.3;stroke-opacity:1" id="circle4" cx="487.53299" cy="268.87592" r="7.3960509" /><path style="fill:#ffb921;fill-opacity:1;stroke:#ffb921;stroke-width:1.07901;stroke-opacity:1;paint-order:markers fill stroke" d="m 549.47069,229.90638 c 0,-2.54464 2.75258,-3.55687 4.33764,-5.06792 6.31874,-5.00965 12.60398,-10.07175 18.89899,-15.10589 3.38485,-2.2177 7.75163,-2.89651 11.61126,-1.62672 2.16882,0.65496 4.51568,0.87076 6.48273,2.05315 2.23679,1.32211 2.80437,4.53531 1.2139,6.57163 -1.47504,2.00028 -3.78412,3.12051 -5.67779,4.66987 -7.74518,5.67109 -15.46335,11.3807 -23.25386,16.98942 -1.80411,1.33248 -4.19952,0.61073 -5.71016,-0.80494 -2.33713,-1.8258 -4.7876,-3.52493 -7.04921,-5.43673 -0.5287,-0.6064 -0.90637,-1.44351 -0.85241,-2.24187 z m 38.97404,-15.93263 c -1.50628,-0.76502 -3.2446,-0.95061 -4.85989,-1.43919 -1.8548,-0.56649 -3.83913,-0.89235 -5.73062,-0.26328 -2.44074,0.51361 -4.07436,2.47785 -5.99072,3.8947 -5.7177,4.58139 -11.43109,9.1685 -17.18007,13.71051 2.05984,1.54062 4.07867,3.13605 6.1547,4.65412 9.02163,-6.54661 17.99798,-13.15579 26.98292,-19.75203 0.22659,-0.1953 0.59349,-0.57079 0.62586,-0.80494 z" id="path5" /><path style="fill:#ffb921;fill-opacity:1;stroke:#ffb921;stroke-width:1.07901;stroke-opacity:1;paint-order:markers fill stroke" d="m 549.47069,255.06351 c 0,-2.33186 2.37386,-3.29736 3.88014,-4.59325 2.05015,-1.44319 3.88445,-3.24924 6.1407,-4.35998 2.2713,-0.92148 4.24162,0.915 5.93675,2.15328 4.67858,3.44217 9.42517,6.80471 14.03905,10.32564 1.42862,1.41675 0,4.10598 -1.96164,3.71991 -1.91204,-0.64202 -3.31797,-2.30759 -5.02715,-3.35143 -3.88554,-2.84245 -7.77,-5.69148 -11.66737,-8.51203 -2.07926,1.51548 -4.09704,3.11437 -6.15902,4.65337 6.56365,5.20754 13.14672,10.43483 19.63377,15.70873 2.29935,2.08283 5.76299,2.77868 8.69793,1.77962 1.70486,-0.46829 3.44959,-0.80818 5.12317,-1.37423 0.65818,-0.751 -1.06823,-1.40164 -1.63794,-1.97363 -1.02508,-0.76826 -2.49362,-1.53652 -2.21415,-3.08253 0.17263,-1.83357 2.66516,-2.55435 3.89091,-1.24486 1.93037,1.42916 4.29882,2.80005 4.72395,5.39756 0.57185,2.79724 -1.97568,5.10353 -4.54268,5.54118 -2.53567,0.56863 -5.01201,1.4899 -7.61461,1.67312 -3.75279,0.1079 -7.46784,-1.39701 -10.15891,-3.99732 -6.64026,-5.33131 -13.29671,-10.6433 -19.95962,-15.94354 -0.6906,-0.64741 -1.14269,-1.56543 -1.12328,-2.51961 z" id="path6" /><path style="fill:#ffb921;fill-opacity:1;stroke:none;stroke-width:1.18562;stroke-opacity:1;paint-order:markers fill stroke" d="m 543.13149,242.48425 c 0,3.34516 2.71803,6.06644 6.06514,6.06644 3.34389,0 6.06624,-2.72128 6.06624,-6.06644 0,-3.34517 -2.72235,-6.06644 -6.06624,-6.06644 -3.34711,0 -6.06514,2.72127 -6.06514,6.06644 z m 7.65452,0 c 0,0.87616 -0.72292,1.59122 -1.58938,1.59122 -0.86323,0 -1.59156,-0.71323 -1.59156,-1.59122 0,-0.87832 0.72297,-1.59091 1.59156,-1.59091 0.86323,0 1.58938,0.71216 1.58938,1.59091 z" id="path7" /><path style="fill:#ffb921;fill-opacity:1;stroke:#ffb921;stroke-width:1.07901;stroke-dasharray:none;stroke-opacity:1" d="m 512.8867,223.37974 c -0.15107,-7.3536 5.50944,-14.30472 12.74315,-15.64346 5.88928,-1.23827 12.36119,1.16351 15.93599,6.02555 2.97054,3.92524 4.00316,9.27414 2.59505,14.00367 2.15695,1.69956 2.03284,5.34793 -0.16185,6.97217 -1.71241,1.64108 -3.26837,3.46731 -5.12318,4.94815 -1.78687,1.09639 -4.33659,0.66467 -5.66051,-0.96248 -6.77947,2.09264 -14.70483,-1.10869 -18.16633,-7.29641 -1.41243,-2.43016 -2.15586,-5.24121 -2.16664,-8.04686 z m 27.41128,-0.002 c 0.15108,-5.80197 -4.81238,-11.15129 -10.60564,-11.45547 -5.30549,-0.45642 -10.64556,3.23651 -11.94684,8.43013 -1.38438,4.94901 0.96034,10.68182 5.53317,13.09579 3.12702,1.77218 7.01038,1.78459 10.3014,0.47693 1.63038,-0.6377 2.52162,2.70951 3.61035,1.29536 1.34987,-1.3492 2.6997,-2.69884 4.04953,-4.04793 -1.19443,-0.98622 -2.53135,-2.51216 -1.52245,-4.11774 0.37762,-1.18486 0.61503,-2.4321 0.58266,-3.67685 z" id="path8" sodipodi:nodetypes="ccccccccccscccccccss" /><ellipse style="fill:none;fill-opacity:1;stroke:#ffb921;stroke-width:3.72235;stroke-linecap:round;stroke-linejoin:round;stroke-miterlimit:6.9;stroke-dasharray:none;stroke-dashoffset:0;stroke-opacity:1;paint-order:fill markers stroke" id="ellipse8" cx="528.81006" cy="223.28053" rx="5.200294" ry="5.2106333" /><path style="fill:#ffb921;fill-opacity:1;stroke:#ffb921;stroke-width:1.07901;stroke-dasharray:none;stroke-opacity:1" d="m 512.8867,261.55217 c -0.15107,7.3536 5.50944,14.30473 12.74315,15.64346 5.88928,1.23828 12.36119,-1.16339 15.93599,-6.02554 2.97054,-3.92524 4.00316,-9.27414 2.59505,-14.00368 2.15695,-1.69956 2.03284,-5.34793 -0.16185,-6.97217 -1.71241,-1.64096 -3.26837,-3.46731 -5.12318,-4.94804 -1.78687,-1.09639 -4.33659,-0.66467 -5.66051,0.96248 -6.77947,-2.09264 -14.70483,1.10869 -18.16633,7.29641 -1.41243,2.43016 -2.15586,5.24121 -2.16664,8.04687 z m 27.41128,0.002 c 0.15108,5.80208 -4.81238,11.15141 -10.60564,11.45558 -5.30549,0.45643 -10.64556,-3.23661 -11.94684,-8.43013 -1.38438,-4.94901 0.96034,-10.68182 5.53317,-13.09579 3.12702,-1.77218 7.01038,-1.78458 10.3014,-0.47693 1.63038,0.6377 2.52162,-2.70951 3.61035,-1.29536 1.34987,1.34921 2.6997,2.69884 4.04953,4.04793 -1.19443,0.98622 -2.53135,2.51217 -1.52245,4.11774 0.37762,1.18486 0.61503,2.4321 0.58266,3.67685 z" id="path9" sodipodi:nodetypes="ccccccccccscccccccss" /><ellipse style="fill:none;fill-opacity:1;stroke:#ffb921;stroke-width:3.72235;stroke-linecap:round;stroke-linejoin:round;stroke-miterlimit:6.9;stroke-dasharray:none;stroke-dashoffset:0;stroke-opacity:1;paint-order:fill markers stroke" id="ellipse9" cx="528.81006" cy="261.07471" rx="5.200294" ry="5.2106333" /></g><text xml:space="preserve" style="font-style:normal;font-variant:normal;font-weight:normal;font-stretch:normal;font-size:29.4292px;line-height:1.25;font-family:'Nizar Cocon Kurdish';-inkscape-font-specification:'Nizar Cocon Kurdish';fill:#ffb921;fill-opacity:1;stroke-width:0.367866" x="100.67759" y="188.77084" id="text9"><tspan sodipodi:role="line" id="tspan9" x="100.67759" y="188.77084" style="font-style:normal;font-variant:normal;font-weight:normal;font-stretch:normal;font-family:'Nizar Cocon Kurdish';-inkscape-font-specification:'Nizar Cocon Kurdish';fill:#ffb921;fill-opacity:1;stroke-width:0.367866">RH Video Splitter</tspan></text><text xml:space="preserve" style="font-style:normal;font-variant:normal;font-weight:normal;font-stretch:normal;font-size:11.8178px;line-height:1.25;font-family:'Cocon Next Arabic';-inkscape-font-specification:'Cocon Next Arabic';fill:#808080;fill-opacity:1;stroke-width:0.147724" x="117.48054" y="212.40794" id="text10"><tspan sodipodi:role="line" id="tspan10" x="117.48054" y="212.40794" style="font-style:normal;font-variant:normal;font-weight:normal;font-stretch:normal;font-family:'Cocon Next Arabic';-inkscape-font-specification:'Cocon Next Arabic';fill:#808080;fill-opacity:1;stroke-width:0.147724">Cut and Share: Enjoy Videos Your Way</tspan></text><rect style="opacity:0.37;fill:#979797;fill-opacity:1;stroke:none;stroke-width:1.06825;stroke-linecap:square;stroke-miterlimit:19.6;stroke-dasharray:1.06825, 2.1365;stroke-opacity:1" id="rect10" width="123.5" height="1.0147187" x="146.21173" y="197.5983" ry="0.50735933" /></g></svg>
