<?xml version="1.0" encoding="UTF-8" standalone="no"?>
<svg inkscape:version="1.2.1 (9c6d41e410, 2022-07-14)" id="svg8" version="1.1" viewBox="0 0 67.081015 19.407375" height="73.350708" width="253.53455" sodipodi:docname="logo.svg" inkscape:export-filename="..\..\..\..\Users\bmms3\Desktop\favicon.png" inkscape:export-xdpi="1.28" inkscape:export-ydpi="1.28" xmlns:inkscape="http://www.inkscape.org/namespaces/inkscape" xmlns:sodipodi="http://sodipodi.sourceforge.net/DTD/sodipodi-0.dtd" xmlns="http://www.w3.org/2000/svg" xmlns:svg="http://www.w3.org/2000/svg" xmlns:rdf="http://www.w3.org/1999/02/22-rdf-syntax-ns#" xmlns:cc="http://creativecommons.org/ns#" xmlns:dc="http://purl.org/dc/elements/1.1/">
  <defs id="defs2">
    <linearGradient id="linearGradient5350" inkscape:swatch="solid">
      <stop id="stop5348" offset="0" style="stop-color:#cb7f07;stop-opacity:1;" />
    </linearGradient>
    <clipPath id="clipPath50199" clipPathUnits="userSpaceOnUse">
      <path id="path50197" d="M 0,512 H 512 V 0 H 0 Z" />
    </clipPath>
    <clipPath clipPathUnits="userSpaceOnUse" id="clipPath1">
      <g id="g2" transform="matrix(24.567562,0,0,-24.567562,-3653.7541,4618.6743)">
        <path id="path2" d="m 138.31187,175.09723 h 20.84049 v 20.84049 h -20.84049 z" style="stroke-width:0.0407041" />
      </g>
    </clipPath>
    <clipPath clipPathUnits="userSpaceOnUse" id="clipPath2">
      <g id="g3" transform="matrix(24.567562,0,0,-24.567562,-3654,4649.7354)">
        <path id="path3" d="m 138.31187,175.09723 h 20.84049 v 20.84049 h -20.84049 z" style="stroke-width:0.0407041" />
      </g>
    </clipPath>
    <clipPath clipPathUnits="userSpaceOnUse" id="clipPath3">
      <g id="g4" transform="matrix(24.567562,0,0,-24.567562,-3679.879,4708.3737)">
        <path id="path4" d="m 138.31187,175.09723 h 20.84049 v 20.84049 h -20.84049 z" style="stroke-width:0.0407041" />
      </g>
    </clipPath>
    <clipPath clipPathUnits="userSpaceOnUse" id="clipPath4">
      <g id="g5" transform="matrix(24.567562,0,0,-24.567562,-3589.9102,4572.4031)">
        <path id="path5" d="m 138.31187,175.09723 h 20.84049 v 20.84049 h -20.84049 z" style="stroke-width:0.0407041" />
      </g>
    </clipPath>
    <clipPath clipPathUnits="userSpaceOnUse" id="clipPath5">
      <g id="g6" transform="matrix(24.567562,0,0,-24.567562,-3730.2754,4570.0694)">
        <path id="path6" d="m 138.31187,175.09723 h 20.84049 v 20.84049 h -20.84049 z" style="stroke-width:0.0407041" />
      </g>
    </clipPath>
    <clipPath clipPathUnits="userSpaceOnUse" id="clipPath6">
      <g id="g7" transform="matrix(24.567562,0,0,-24.567562,-3637.1796,4594.9259)">
        <path id="path7" d="m 138.31187,175.09723 h 20.84049 v 20.84049 h -20.84049 z" style="stroke-width:0.0407041" />
      </g>
    </clipPath>
    <clipPath clipPathUnits="userSpaceOnUse" id="clipPath7">
      <g id="g8" transform="matrix(24.567562,0,0,-24.567562,-3672.4844,4594.4836)">
        <path id="path8" d="m 138.31187,175.09723 h 20.84049 v 20.84049 h -20.84049 z" style="stroke-width:0.0407041" />
      </g>
    </clipPath>
    <clipPath clipPathUnits="userSpaceOnUse" id="clipPath8">
      <g id="g9" transform="matrix(24.567562,0,0,-24.567562,-3638.008,4573.4924)">
        <path id="path9" d="m 138.31187,175.09723 h 20.84049 v 20.84049 h -20.84049 z" style="stroke-width:0.0407041" />
      </g>
    </clipPath>
    <clipPath clipPathUnits="userSpaceOnUse" id="clipPath9">
      <g id="g10" transform="matrix(24.567562,0,0,-24.567562,-3673.8037,4572.4664)">
        <path id="path10" d="m 138.31187,175.09723 h 20.84049 v 20.84049 h -20.84049 z" style="stroke-width:0.0407041" />
      </g>
    </clipPath>
    <clipPath clipPathUnits="userSpaceOnUse" id="clipPath10">
      <g id="g11" transform="matrix(24.567562,0,0,-24.567562,-3665.1505,4474.2502)">
        <path id="path11" d="m 138.31187,175.09723 h 20.84049 v 20.84049 h -20.84049 z" style="stroke-width:0.0407041" />
      </g>
    </clipPath>
    <clipPath clipPathUnits="userSpaceOnUse" id="clipPath11">
      <g id="g12" transform="matrix(24.567562,0,0,-24.567562,-3647.216,4384.3472)">
        <path id="path12" d="m 138.31187,175.09723 h 20.84049 v 20.84049 h -20.84049 z" style="stroke-width:0.0407041" />
      </g>
    </clipPath>
  </defs>
  <sodipodi:namedview inkscape:snap-global="true" inkscape:guide-bbox="true" showguides="true" width="1200px" gridtolerance="6" inkscape:snap-tangential="true" inkscape:snap-perpendicular="true" guidetolerance="5.5" objecttolerance="5.5" inkscape:showpageshadow="false" inkscape:pagecheckerboard="true" units="px" inkscape:snap-page="true" inkscape:snap-text-baseline="true" inkscape:snap-center="true" inkscape:snap-object-midpoints="true" inkscape:snap-midpoints="true" inkscape:snap-smooth-nodes="true" inkscape:snap-intersection-paths="true" inkscape:object-paths="true" inkscape:snap-bbox-midpoints="true" inkscape:snap-bbox-edge-midpoints="true" inkscape:bbox-nodes="true" inkscape:bbox-paths="true" inkscape:snap-bbox="true" showgrid="false" inkscape:document-rotation="0" inkscape:current-layer="layer2" inkscape:document-units="px" inkscape:cy="702.5" inkscape:cx="499" inkscape:zoom="1" inkscape:pageshadow="2" inkscape:pageopacity="0" borderopacity="1" bordercolor="#000000" pagecolor="#606060" id="base" showborder="true" inkscape:deskcolor="#606060" inkscape:window-width="1536" inkscape:window-height="793" inkscape:window-x="1432" inkscape:window-y="95" inkscape:window-maximized="1">
    <sodipodi:guide id="guide6241" orientation="1,0" position="1012.5036,729.6695" inkscape:locked="false" />
    <sodipodi:guide id="guide6243" orientation="1,0" position="-280.65334,723.68267" inkscape:locked="false" />
    <sodipodi:guide position="-27.382049,232.10036" orientation="1,0" id="guide39" inkscape:locked="false" />
    <sodipodi:guide position="-10.497299,232.61486" orientation="1,0" id="guide40" inkscape:locked="false" />
  </sodipodi:namedview>
  <metadata id="metadata5">
    <rdf:RDF>
      <cc:Work rdf:about="">
        <dc:format>image/svg+xml</dc:format>
        <dc:type rdf:resource="http://purl.org/dc/dcmitype/StillImage" />
        <dc:title />
      </cc:Work>
    </rdf:RDF>
  </metadata>
  <g inkscape:label="layer1" id="layer2" inkscape:groupmode="layer" style="display:inline" transform="translate(-232.75864,-154.9331)">
    <g id="g38" inkscape:export-filename="..\..\..\..\Users\bmms3\Desktop\logo.svg" inkscape:export-xdpi="22.241491" inkscape:export-ydpi="22.241491" transform="matrix(1.2247967,0,0,1.2247967,106.48324,-60.47264)">
      <g inkscape:export-ydpi="64.669998" inkscape:export-xdpi="64.669998" inkscape:export-filename="C:\Users\bmsbms16\Desktop\g50193.png" id="g26" transform="matrix(0.04070408,0,0,-0.04070408,138.31187,195.93772)">
        <g id="g25" clip-path="url(#clipPath50199)">
          <g id="g14" transform="translate(249.2305,429.3647)">
            <path d="m 0,0 c 0,-47 0.001,-94 0,-141 0,-13.026 0.018,-26.053 -0.034,-39.08 -0.007,-1.817 0.469,-4.21 -1.555,-5.064 -1.918,-0.809 -2.951,1.372 -4.11,2.527 -19.368,19.306 -38.672,38.677 -58.077,57.945 -2.771,2.751 -3.828,5.519 -3.581,9.584 0.751,12.384 0.478,24.806 1.05,37.221 0.911,19.769 0.56,39.596 1.369,59.372 1,24.495 1.773,48.985 1.966,73.498 0.023,2.847 -0.654,7.096 1.91,8.2 2.979,1.282 4.765,-2.78 6.776,-4.77 C -37.193,41.512 -20.235,24.455 -3.129,7.546 -0.878,5.321 0.194,3.063 0,0" style="fill:#0877bc;fill-opacity:1;fill-rule:nonzero;stroke:none" id="path13" />
          </g>
          <g id="g15" transform="translate(267.165,339.4619)">
            <path d="m 0,0 c 0,28.926 0.111,57.853 -0.097,86.777 -0.04,5.613 1.602,9.494 5.816,13.457 11.307,10.635 21.926,22.001 32.882,33.014 5.978,6.009 12.052,11.924 18.164,17.799 1.181,1.136 2.408,3.071 4.298,2.324 1.969,-0.777 1.274,-3.003 1.337,-4.645 0.317,-8.152 0.569,-16.307 0.801,-24.462 0.366,-12.874 0.72,-25.749 1.042,-38.625 0.713,-28.426 1.181,-56.861 2.231,-85.274 0.331,-8.952 0.358,-17.904 0.724,-26.847 0.134,-3.271 -0.948,-5.777 -3.181,-8.001 -19.469,-19.38 -38.92,-38.776 -58.39,-58.155 -0.774,-0.771 -1.618,-1.5 -2.527,-2.103 -1.643,-1.091 -2.762,-0.518 -2.938,1.37 -0.203,2.185 -0.198,4.395 -0.199,6.595 C -0.048,-57.851 -0.044,-28.925 -0.044,0 Z" style="fill:#0877bc;fill-opacity:1;fill-rule:nonzero;stroke:none" id="path14" />
          </g>
          <g id="g16" transform="translate(275.8184,241.2456)">
            <path d="m 0,0 c 12.5,7.842 24.039,15.051 35.548,22.309 16.738,10.556 33.431,21.183 50.203,31.685 2.768,1.733 2.898,4.191 2.893,6.933 -0.065,30.806 -0.14,61.611 -0.139,92.417 0.001,13.51 0.008,27.021 -0.819,40.51 -0.251,4.08 1.248,5.662 5.38,5.543 7.696,-0.22 15.402,-0.041 23.103,-0.109 5.984,-0.054 6.325,-0.406 6.328,-6.538 0.02,-37.879 0.053,-75.757 -0.008,-113.636 -0.02,-12.716 -0.375,-25.431 -0.417,-38.147 -0.009,-2.972 -1.876,-3.677 -4.029,-4.362 C 99.341,30.662 80.625,24.762 61.936,18.778 43.402,12.843 24.898,6.82 6.373,0.858 4.771,0.343 3.237,-0.585 0,0" style="fill:#a8a9ae;fill-opacity:1;fill-rule:nonzero;stroke:none" id="path15" />
          </g>
          <g id="g17" transform="translate(240.0225,240.2197)">
            <path d="m 0,0 c -11.497,3.729 -22.633,7.389 -33.799,10.955 -26.935,8.604 -53.88,17.182 -80.833,25.73 -7.08,2.245 -7.234,2.311 -7.237,9.857 -0.023,48.575 -0.036,97.15 -0.031,145.725 0.001,8.087 0.049,8.101 8.174,8.105 6.917,0.004 13.838,-0.188 20.749,0.012 3.964,0.115 5.234,-1.526 5.18,-5.303 -0.448,-31.427 0.425,-62.86 -0.799,-94.287 -0.513,-13.186 -0.08,-26.407 -0.203,-39.61 -0.027,-2.892 1.222,-4.67 3.536,-6.131 C -66.54,43.229 -47.864,31.329 -29.132,19.521 -20.493,14.075 -11.747,8.801 -3.083,3.395 -1.942,2.683 -0.595,2.049 0,0" style="fill:#a8a9ae;fill-opacity:1;fill-rule:nonzero;stroke:none" id="path16" />
          </g>
          <g id="g18" transform="translate(274.499,219.2285)">
            <path d="m 0,0 c 6.745,-2.176 12.552,-6.285 18.696,-9.631 32.539,-17.72 64.992,-35.598 97.435,-53.495 22.687,-12.515 45.302,-25.162 67.967,-37.717 6.437,-3.566 12.952,-6.992 19.395,-10.547 1.044,-0.575 2.721,-1.111 2.424,-2.544 -0.341,-1.638 -2.063,-0.832 -3.222,-1.006 -11.295,-1.701 -22.657,1.49 -33.843,-0.059 -11.931,-1.652 -20.806,2.769 -29.959,9.937 -20.512,16.063 -41.889,31.017 -62.819,46.551 C 51.106,-39.979 26.24,-21.31 1.317,-2.716 0.571,-2.159 -0.318,-1.794 -1.142,-1.339 -0.761,-0.893 -0.381,-0.446 0,0" style="fill:#0877bc;fill-opacity:1;fill-rule:nonzero;stroke:none" id="path17" />
          </g>
          <g id="g19" transform="translate(239.1943,218.7861)">
            <path d="m 0,0 c -8.423,-6.301 -16.547,-12.366 -24.659,-18.448 -18.087,-13.56 -35.876,-27.543 -54.344,-40.562 -15.017,-10.586 -29.335,-22.092 -44.442,-32.546 -9.284,-6.425 -18.136,-13.479 -27.132,-20.317 -3.463,-2.633 -7.374,-3.517 -11.548,-3.095 -8.473,0.857 -16.906,0.591 -25.394,0.063 -5.923,-0.368 -11.912,0.283 -17.87,0.5 -0.916,0.033 -2.131,-0.045 -2.25,1.151 -0.104,1.054 1.025,1.472 1.831,1.925 10.273,5.763 20.569,11.483 30.825,17.276 15.837,8.948 31.915,17.467 47.873,26.192 14.59,7.979 29.079,16.153 43.713,24.061 17.803,9.622 35.384,19.655 53.121,29.403 8.524,4.685 17.172,9.147 25.801,13.638 C -3.326,-0.161 -2.203,1.019 0,0" style="fill:#0877bc;fill-opacity:1;fill-rule:nonzero;stroke:none" id="path18" />
          </g>
          <g id="g20" transform="translate(332.29,243.6426)">
            <path d="m 0,0 c 20.282,4.916 40.897,8.025 61.282,12.318 8.835,1.861 17.708,4.12 26.74,4.984 5.26,0.503 6.541,3.266 6.389,7.846 -0.375,11.286 -0.573,22.576 -0.943,33.861 -0.371,11.296 0.077,22.586 -0.497,33.9 -0.77,15.143 -0.405,30.343 -0.591,45.517 -0.047,3.771 1.871,4.838 5.324,4.719 4.551,-0.157 9.12,-0.14 13.666,0.092 2.643,0.135 3.862,-0.742 3.8,-3.38 -0.023,-0.942 0.021,-1.885 0.021,-2.828 0.005,-39.443 -0.046,-78.885 0.087,-118.328 0.015,-4.483 -0.874,-6.71 -5.975,-7.212 C 88.401,9.434 67.646,6.095 46.707,4.245 32.657,3.004 18.673,1.019 4.663,-0.664 2.999,-0.864 1.311,-1.537 0,0" style="fill:#d0d4d5;fill-opacity:1;fill-rule:nonzero;stroke:none" id="path19" />
          </g>
          <g id="g21" transform="translate(191.9248,241.3091)">
            <path d="m 0,0 c -6.851,0.789 -12.565,1.388 -18.264,2.114 -19.749,2.515 -39.578,4.369 -59.328,6.781 -13.987,1.709 -28.048,3.063 -41.977,5.335 -2.36,0.385 -3.278,1.515 -3.29,3.717 -0.007,1.258 -0.036,2.514 -0.037,3.772 -0.004,39.288 -0.008,78.577 -0.008,117.865 0,6.42 0.007,6.388 6.425,5.932 2.983,-0.212 5.93,0.083 8.904,0.562 5.446,0.876 7.331,-0.769 7.349,-6.119 0.074,-21.515 -0.666,-43.028 -1.245,-64.52 -0.44,-16.331 -0.144,-32.654 -0.651,-48.97 -0.127,-4.113 1.132,-6.196 5.64,-6.852 C -71.313,15.954 -46.692,9.345 -21.547,5.441 -14.682,4.375 -7.575,3.573 0,0" style="fill:#d0d4d5;fill-opacity:1;fill-rule:nonzero;stroke:none" id="path20" />
          </g>
          <g id="g22" transform="translate(281.8936,105.3384)">
            <path d="m 0,0 c -10.572,-1.266 -21.432,-0.572 -32.271,-0.625 -7.209,-0.035 -14.411,0.873 -21.636,0.228 -2.655,-0.237 -3.766,0.845 -3.013,3.688 2.775,10.487 5.494,20.992 8.105,31.522 0.623,2.515 2.125,3.228 4.424,3.225 12.269,-0.016 24.537,-0.033 36.804,0.026 2.628,0.013 3.991,-1.087 4.653,-3.632 C -0.287,24.246 2.517,14.101 5.19,3.922 6.461,-0.916 3.194,-0.337 0,0" style="fill:#a8a9ae;fill-opacity:1;fill-rule:nonzero;stroke:none" id="path21" />
          </g>
          <g id="g23" transform="translate(256.0146,163.9766)">
            <path d="m 0,0 c -4.073,0.004 -8.146,0.035 -12.219,-0.005 -3.13,-0.031 -4.252,1.44 -3.576,4.45 1.233,5.498 2.457,10.997 3.641,16.506 0.538,2.503 1.898,3.73 4.57,3.673 C -2.574,24.518 2.44,24.525 7.452,24.603 10.353,24.647 11.64,23.205 12.191,20.5 13.317,14.981 14.532,9.476 15.883,4.007 16.608,1.066 15.645,-0.083 12.688,-0.025 8.459,0.058 4.229,-0.004 0,0" style="fill:#a8a9ae;fill-opacity:1;fill-rule:nonzero;stroke:none" id="path22" />
          </g>
          <g id="g24" transform="translate(255.7686,195.0376)">
            <path d="m 0,0 c -0.156,0.002 -0.312,0.001 -0.468,0.002 -9.484,0.044 -9.761,0.568 -6.963,9.807 1.56,5.147 5.635,3.301 8.92,3.612 C 4.487,13.706 6.868,13.136 7.837,9.495 10.379,-0.052 10.478,-0.056 0,0" style="fill:#a8a9ae;fill-opacity:1;fill-rule:nonzero;stroke:none" id="path23" />
          </g>
        </g>
      </g>
      <g id="g27" transform="matrix(0.04070408,0,0,-0.04070408,148.45657,178.46082)" clip-path="url(#clipPath11)">
        <path d="m 0,0 c 0,-47 0.001,-94 0,-141 0,-13.026 0.018,-26.053 -0.034,-39.08 -0.007,-1.817 0.469,-4.21 -1.555,-5.064 -1.918,-0.809 -2.951,1.372 -4.11,2.527 -19.368,19.306 -38.672,38.677 -58.077,57.945 -2.771,2.751 -3.828,5.519 -3.581,9.584 0.751,12.384 0.478,24.806 1.05,37.221 0.911,19.769 0.56,39.596 1.369,59.372 1,24.495 1.773,48.985 1.966,73.498 0.023,2.847 -0.654,7.096 1.91,8.2 2.979,1.282 4.765,-2.78 6.776,-4.77 C -37.193,41.512 -20.235,24.455 -3.129,7.546 -0.878,5.321 0.194,3.063 0,0" style="fill:#0877bc;fill-opacity:1;fill-rule:nonzero;stroke:none" id="path26" />
      </g>
      <g id="g28" transform="matrix(0.04070408,0,0,-0.04070408,149.18658,182.12024)" clip-path="url(#clipPath10)">
        <path d="m 0,0 c 0,28.926 0.111,57.853 -0.097,86.777 -0.04,5.613 1.602,9.494 5.816,13.457 11.307,10.635 21.926,22.001 32.882,33.014 5.978,6.009 12.052,11.924 18.164,17.799 1.181,1.136 2.408,3.071 4.298,2.324 1.969,-0.777 1.274,-3.003 1.337,-4.645 0.317,-8.152 0.569,-16.307 0.801,-24.462 0.366,-12.874 0.72,-25.749 1.042,-38.625 0.713,-28.426 1.181,-56.861 2.231,-85.274 0.331,-8.952 0.358,-17.904 0.724,-26.847 0.134,-3.271 -0.948,-5.777 -3.181,-8.001 -19.469,-19.38 -38.92,-38.776 -58.39,-58.155 -0.774,-0.771 -1.618,-1.5 -2.527,-2.103 -1.643,-1.091 -2.762,-0.518 -2.938,1.37 -0.203,2.185 -0.198,4.395 -0.199,6.595 C -0.048,-57.851 -0.044,-28.925 -0.044,0 Z" style="fill:#0877bc;fill-opacity:1;fill-rule:nonzero;stroke:none" id="path27" />
      </g>
      <g id="g29" transform="matrix(0.04070408,0,0,-0.04070408,149.5388,186.11804)" clip-path="url(#clipPath9)">
        <path d="m 0,0 c 12.5,7.842 24.039,15.051 35.548,22.309 16.738,10.556 33.431,21.183 50.203,31.685 2.768,1.733 2.898,4.191 2.893,6.933 -0.065,30.806 -0.14,61.611 -0.139,92.417 0.001,13.51 0.008,27.021 -0.819,40.51 -0.251,4.08 1.248,5.662 5.38,5.543 7.696,-0.22 15.402,-0.041 23.103,-0.109 5.984,-0.054 6.325,-0.406 6.328,-6.538 0.02,-37.879 0.053,-75.757 -0.008,-113.636 -0.02,-12.716 -0.375,-25.431 -0.417,-38.147 -0.009,-2.972 -1.876,-3.677 -4.029,-4.362 C 99.341,30.662 80.625,24.762 61.936,18.778 43.402,12.843 24.898,6.82 6.373,0.858 4.771,0.343 3.237,-0.585 0,0" style="fill:#a8a9ae;fill-opacity:1;fill-rule:nonzero;stroke:none" id="path28" />
      </g>
      <g id="g30" transform="matrix(0.04070408,0,0,-0.04070408,148.08177,186.1598)" clip-path="url(#clipPath8)">
        <path d="m 0,0 c -11.497,3.729 -22.633,7.389 -33.799,10.955 -26.935,8.604 -53.88,17.182 -80.833,25.73 -7.08,2.245 -7.234,2.311 -7.237,9.857 -0.023,48.575 -0.036,97.15 -0.031,145.725 0.001,8.087 0.049,8.101 8.174,8.105 6.917,0.004 13.838,-0.188 20.749,0.012 3.964,0.115 5.234,-1.526 5.18,-5.303 -0.448,-31.427 0.425,-62.86 -0.799,-94.287 -0.513,-13.186 -0.08,-26.407 -0.203,-39.61 -0.027,-2.892 1.222,-4.67 3.536,-6.131 C -66.54,43.229 -47.864,31.329 -29.132,19.521 -20.493,14.075 -11.747,8.801 -3.083,3.395 -1.942,2.683 -0.595,2.049 0,0" style="fill:#a8a9ae;fill-opacity:1;fill-rule:nonzero;stroke:none" id="path29" />
      </g>
      <g id="g31" transform="matrix(0.04070408,0,0,-0.04070408,149.4851,187.01423)" clip-path="url(#clipPath7)">
        <path d="m 0,0 c 6.745,-2.176 12.552,-6.285 18.696,-9.631 32.539,-17.72 64.992,-35.598 97.435,-53.495 22.687,-12.515 45.302,-25.162 67.967,-37.717 6.437,-3.566 12.952,-6.992 19.395,-10.547 1.044,-0.575 2.721,-1.111 2.424,-2.544 -0.341,-1.638 -2.063,-0.832 -3.222,-1.006 -11.295,-1.701 -22.657,1.49 -33.843,-0.059 -11.931,-1.652 -20.806,2.769 -29.959,9.937 -20.512,16.063 -41.889,31.017 -62.819,46.551 C 51.106,-39.979 26.24,-21.31 1.317,-2.716 0.571,-2.159 -0.318,-1.794 -1.142,-1.339 -0.761,-0.893 -0.381,-0.446 0,0" style="fill:#0877bc;fill-opacity:1;fill-rule:nonzero;stroke:none" id="path30" />
      </g>
      <g id="g32" transform="matrix(0.04070408,0,0,-0.04070408,148.04805,187.03223)" clip-path="url(#clipPath6)">
        <path d="m 0,0 c -8.423,-6.301 -16.547,-12.366 -24.659,-18.448 -18.087,-13.56 -35.876,-27.543 -54.344,-40.562 -15.017,-10.586 -29.335,-22.092 -44.442,-32.546 -9.284,-6.425 -18.136,-13.479 -27.132,-20.317 -3.463,-2.633 -7.374,-3.517 -11.548,-3.095 -8.473,0.857 -16.906,0.591 -25.394,0.063 -5.923,-0.368 -11.912,0.283 -17.87,0.5 -0.916,0.033 -2.131,-0.045 -2.25,1.151 -0.104,1.054 1.025,1.472 1.831,1.925 10.273,5.763 20.569,11.483 30.825,17.276 15.837,8.948 31.915,17.467 47.873,26.192 14.59,7.979 29.079,16.153 43.713,24.061 17.803,9.622 35.384,19.655 53.121,29.403 8.524,4.685 17.172,9.147 25.801,13.638 C -3.326,-0.161 -2.203,1.019 0,0" style="fill:#0877bc;fill-opacity:1;fill-rule:nonzero;stroke:none" id="path31" />
      </g>
      <g id="g33" transform="matrix(0.04070408,0,0,-0.04070408,151.83743,186.02047)" clip-path="url(#clipPath5)">
        <path d="m 0,0 c 20.282,4.916 40.897,8.025 61.282,12.318 8.835,1.861 17.708,4.12 26.74,4.984 5.26,0.503 6.541,3.266 6.389,7.846 -0.375,11.286 -0.573,22.576 -0.943,33.861 -0.371,11.296 0.077,22.586 -0.497,33.9 -0.77,15.143 -0.405,30.343 -0.591,45.517 -0.047,3.771 1.871,4.838 5.324,4.719 4.551,-0.157 9.12,-0.14 13.666,0.092 2.643,0.135 3.862,-0.742 3.8,-3.38 -0.023,-0.942 0.021,-1.885 0.021,-2.828 0.005,-39.443 -0.046,-78.885 0.087,-118.328 0.015,-4.483 -0.874,-6.71 -5.975,-7.212 C 88.401,9.434 67.646,6.095 46.707,4.245 32.657,3.004 18.673,1.019 4.663,-0.664 2.999,-0.864 1.311,-1.537 0,0" style="fill:#d0d4d5;fill-opacity:1;fill-rule:nonzero;stroke:none" id="path32" />
      </g>
      <g id="g34" transform="matrix(0.04070408,0,0,-0.04070408,146.12399,186.11546)" clip-path="url(#clipPath4)">
        <path d="m 0,0 c -6.851,0.789 -12.565,1.388 -18.264,2.114 -19.749,2.515 -39.578,4.369 -59.328,6.781 -13.987,1.709 -28.048,3.063 -41.977,5.335 -2.36,0.385 -3.278,1.515 -3.29,3.717 -0.007,1.258 -0.036,2.514 -0.037,3.772 -0.004,39.288 -0.008,78.577 -0.008,117.865 0,6.42 0.007,6.388 6.425,5.932 2.983,-0.212 5.93,0.083 8.904,0.562 5.446,0.876 7.331,-0.769 7.349,-6.119 0.074,-21.515 -0.666,-43.028 -1.245,-64.52 -0.44,-16.331 -0.144,-32.654 -0.651,-48.97 -0.127,-4.113 1.132,-6.196 5.64,-6.852 C -71.313,15.954 -46.692,9.345 -21.547,5.441 -14.682,4.375 -7.575,3.573 0,0" style="fill:#d0d4d5;fill-opacity:1;fill-rule:nonzero;stroke:none" id="path33" />
      </g>
      <g id="g35" transform="matrix(0.04070408,0,0,-0.04070408,149.78609,191.65002)" clip-path="url(#clipPath3)">
        <path d="m 0,0 c -10.572,-1.266 -21.432,-0.572 -32.271,-0.625 -7.209,-0.035 -14.411,0.873 -21.636,0.228 -2.655,-0.237 -3.766,0.845 -3.013,3.688 2.775,10.487 5.494,20.992 8.105,31.522 0.623,2.515 2.125,3.228 4.424,3.225 12.269,-0.016 24.537,-0.033 36.804,0.026 2.628,0.013 3.991,-1.087 4.653,-3.632 C -0.287,24.246 2.517,14.101 5.19,3.922 6.461,-0.916 3.194,-0.337 0,0" style="fill:#a8a9ae;fill-opacity:1;fill-rule:nonzero;stroke:none" id="path34" />
      </g>
      <g id="g36" transform="matrix(0.04070408,0,0,-0.04070408,148.73271,189.2632)" clip-path="url(#clipPath2)">
        <path d="m 0,0 c -4.073,0.004 -8.146,0.035 -12.219,-0.005 -3.13,-0.031 -4.252,1.44 -3.576,4.45 1.233,5.498 2.457,10.997 3.641,16.506 0.538,2.503 1.898,3.73 4.57,3.673 C -2.574,24.518 2.44,24.525 7.452,24.603 10.353,24.647 11.64,23.205 12.191,20.5 13.317,14.981 14.532,9.476 15.883,4.007 16.608,1.066 15.645,-0.083 12.688,-0.025 8.459,0.058 4.229,-0.004 0,0" style="fill:#a8a9ae;fill-opacity:1;fill-rule:nonzero;stroke:none" id="path35" />
      </g>
      <g id="g37" transform="matrix(0.04070408,0,0,-0.04070408,148.7227,187.99889)" clip-path="url(#clipPath1)">
        <path d="m 0,0 c -0.156,0.002 -0.312,0.001 -0.468,0.002 -9.484,0.044 -9.761,0.568 -6.963,9.807 1.56,5.147 5.635,3.301 8.92,3.612 C 4.487,13.706 6.868,13.136 7.837,9.495 10.379,-0.052 10.478,-0.056 0,0" style="fill:#a8a9ae;fill-opacity:1;fill-rule:nonzero;stroke:none" id="path36" />
      </g>
    </g>
    <text inkscape:export-ydpi="64.669998" inkscape:export-xdpi="64.669998" inkscape:export-filename="C:\Users\bmsbms16\Desktop\g50193.png" id="text38" y="164.51892" x="232.4201" style="font-style:normal;font-variant:normal;font-weight:bold;font-stretch:normal;font-size:8.46301px;line-height:1.25;font-family:Cairo;-inkscape-font-specification:'Cairo Bold';letter-spacing:-0.00521568px;fill:#ffffff;fill-opacity:1;stroke-width:0.0881559" xml:space="preserve"><tspan style="font-style:normal;font-variant:normal;font-weight:bold;font-stretch:normal;font-size:8.46301px;font-family:Cairo;-inkscape-font-specification:'Cairo Bold';fill:#ffffff;fill-opacity:1;stroke-width:0.0881559" y="164.51892" x="232.4201" sodipodi:role="line" id="tspan41">الدين القيم</tspan></text>
    <text inkscape:export-ydpi="64.669998" inkscape:export-xdpi="64.669998" inkscape:export-filename="C:\Users\bmsbms16\Desktop\g50193.png" id="text39" y="171.45132" x="234.94644" style="font-style:normal;font-variant:normal;font-weight:bold;font-stretch:normal;font-size:2.36128px;line-height:1.25;font-family:Tajawal;-inkscape-font-specification:'Tajawal Bold';letter-spacing:-0.00145525px;fill:#a8a9ae;fill-opacity:1;stroke-width:0.0245968" xml:space="preserve"><tspan style="font-style:normal;font-variant:normal;font-weight:bold;font-stretch:normal;font-size:2.36128px;font-family:Tajawal;-inkscape-font-specification:'Tajawal Bold';fill:#a8a9ae;fill-opacity:1;stroke-width:0.0245968" y="171.45132" x="234.94644" id="tspan39" sodipodi:role="line">التطبيق الرسمي لمعهد الدين القيم</tspan></text>
  </g>
  <inkscape:templateinfo>
    <inkscape:name>illustrator</inkscape:name>
    <inkscape:date>2020-07-08</inkscape:date>
  </inkscape:templateinfo>
</svg>
